#define close_width 18
#define close_height 18
static unsigned char close_bits[] = {
 0x00, 0x00, 0x00, 0x00, 0x00, 0x00, 0x00, 0x00, 0x00, 0x00, 0x00, 0x00,
 0x00, 0x00, 0x00, 0x00, 0x00, 0x00, 0xFC, 0x17, 0x00, 0xFE, 0x37, 0x00,
 0xFF, 0x7B, 0x00, 0x1F, 0x7C, 0x00, 0xEF, 0x7F, 0x00, 0xF6, 0x3F, 0x00,
 0xF4, 0x1F, 0x00, 0x00, 0x00, 0x00, 0x00, 0x00, 0x00, 0x00, 0x00, 0x00,
 0x00, 0x00, 0x00, 0x00, 0x00, 0x00 };
