#define iconify_width 18
#define iconify_height 18
static unsigned char iconify_bits[] = {
 0x00, 0x00, 0x00, 0x00, 0x00, 0x00, 0x00, 0x00, 0x00, 0x00, 0x00, 0x00,
 0x00, 0x00, 0x00, 0x00, 0x00, 0x00, 0xFC, 0x1F, 0x00, 0xFE, 0x3F, 0x00,
 0x7F, 0x76, 0x00, 0x1F, 0x78, 0x00, 0x6F, 0x7E, 0x00, 0xFE, 0x3F, 0x00,
 0xFC, 0x1F, 0x00, 0x00, 0x00, 0x00, 0x00, 0x00, 0x00, 0x00, 0x00, 0x00,
 0x00, 0x00, 0x00, 0x00, 0x00, 0x00 };
