#define iconify_width 18
#define iconify_height 18
static unsigned char iconify_bits[] = {
   0x00, 0x00, 0x00, 0x00, 0x00, 0x00, 0x00, 0x00, 0x00, 0x00, 0x00, 0x00,
   0x00, 0x02, 0x02, 0x00, 0x04, 0x01, 0x00, 0xf8, 0x00, 0x00, 0xf8, 0x00,
   0x00, 0xf8, 0x00, 0x00, 0xf8, 0x00, 0x00, 0x04, 0x01, 0x00, 0x02, 0x02,
   0x00, 0x00, 0x00, 0x00, 0x00, 0x00, 0x00, 0x00, 0x00, 0x00, 0x00, 0x00,
   0x00, 0x00, 0x00, 0x00, 0x00, 0x00 };
