#define Iconify_width 8
#define Iconify_height 10
static unsigned char Iconify_bits[] = {
0x00, 0x00, 0x00, 0x00, 0x00, 0x00, 0x00, 0x00,
0x7f, 0x7f};