#define iconify_width 18
#define iconify_height 18
static unsigned char iconify_bits[] = {
 0x00, 0x00, 0x00, 0x00, 0x00, 0x00, 0x00, 0x00, 0x00, 0x00, 0x00, 0x00,
 0x00, 0x00, 0x00, 0x00, 0x00, 0x00, 0x60, 0xBF, 0x00, 0x60, 0x80, 0x01,
 0xE0, 0xFF, 0x03, 0xC0, 0x00, 0x03, 0x80, 0x7E, 0x03, 0x00, 0x00, 0x00,
 0x00, 0x00, 0x00, 0x00, 0x00, 0x00, 0x00, 0x00, 0x00, 0x00, 0x00, 0x00,
 0x00, 0x00, 0x00, 0x00, 0x00, 0x00 };
