#define Max_width 11
#define Max_height 11
static unsigned char Max_bits[] = {
0x00, 0x00, 0xfc, 0x07, 0xfc, 0x07, 0x04, 0x04,
0xff, 0x05, 0xff, 0x05, 0x01, 0x05, 0x01, 0x07,
0x01, 0x01, 0x01, 0x01, 0xff, 0x01};