#define max_width 18
#define max_height 18
static unsigned char max_bits[] = {
 0x00, 0x00, 0x00, 0x00, 0x00, 0x00, 0x00, 0x00, 0x00, 0x00, 0x00, 0x00,
 0xFC, 0x1F, 0x00, 0x06, 0x30, 0x00, 0xFB, 0x6B, 0x00, 0xFD, 0x5B, 0x00,
 0xFD, 0x5B, 0x00, 0x0D, 0x58, 0x00, 0xED, 0x5F, 0x00, 0xED, 0x5F, 0x00,
 0xEB, 0x6F, 0x00, 0x06, 0x30, 0x00, 0xFC, 0x1F, 0x00, 0x00, 0x00, 0x00,
 0x00, 0x00, 0x00, 0x00, 0x00, 0x00 };
