#define max_width 18
#define max_height 18
static unsigned char max_bits[] = {
 0x00, 0x00, 0x00, 0x00, 0x00, 0x00, 0x00, 0x00, 0x00, 0x00, 0x00, 0x00,
 0x00, 0x00, 0x00, 0x00, 0x00, 0x00, 0xFC, 0x1F, 0x00, 0xFE, 0x3F, 0x00,
 0xFF, 0x7B, 0x00, 0x0F, 0x78, 0x00, 0xEF, 0x7F, 0x00, 0xFE, 0x3F, 0x00,
 0xFC, 0x1F, 0x00, 0x00, 0x00, 0x00, 0x00, 0x00, 0x00, 0x00, 0x00, 0x00,
 0x00, 0x00, 0x00, 0x00, 0x00, 0x00 };
