#define close_width 18
#define close_height 18
static unsigned char close_bits[] = {
 0x00, 0x00, 0x00, 0x00, 0x00, 0x00, 0x00, 0x00, 0x00, 0x00, 0x00, 0x00,
 0xFC, 0x07, 0x00, 0x00, 0x08, 0x00, 0xFC, 0x13, 0x00, 0xFE, 0x33, 0x00,
 0x0F, 0x70, 0x00, 0x07, 0x78, 0x00, 0xE7, 0x7F, 0x00, 0xE6, 0x3F, 0x00,
 0xE4, 0x1F, 0x00, 0x08, 0x00, 0x00, 0xF0, 0x07, 0x00, 0x00, 0x00, 0x00,
 0x00, 0x00, 0x00, 0x00, 0x00, 0x00 };
