#define iconify_width 18
#define iconify_height 18
static unsigned char iconify_bits[] = {
 0x00, 0x00, 0x00, 0x00, 0x00, 0x00, 0x00, 0x00, 0x00, 0x00, 0x00, 0x00,
 0xFC, 0x1F, 0x00, 0x0E, 0x38, 0x00, 0xE7, 0x73, 0x00, 0xC3, 0x61, 0x00,
 0x8B, 0x68, 0x00, 0xFB, 0x6F, 0x00, 0x8B, 0x68, 0x00, 0xC3, 0x61, 0x00,
 0xE7, 0x73, 0x00, 0x0E, 0x38, 0x00, 0xFC, 0x1F, 0x00, 0x00, 0x00, 0x00,
 0x00, 0x00, 0x00, 0x00, 0x00, 0x00 };
