#define max_width 18
#define max_height 18
static unsigned char max_bits[] = {
   0x00, 0x00, 0x00, 0x00, 0x00, 0x00, 0x00, 0x00, 0x00, 0x08, 0x40, 0x00,
   0x08, 0x40, 0x00, 0x08, 0x43, 0x00, 0x88, 0x47, 0x00, 0xf8, 0x7f, 0x00,
   0xf8, 0x7f, 0x00, 0xf8, 0x7f, 0x00, 0x88, 0x47, 0x00, 0x08, 0x43, 0x00,
   0x08, 0x40, 0x00, 0x08, 0x40, 0x00, 0x00, 0x00, 0x00, 0x00, 0x00, 0x00,
   0x00, 0x00, 0x00, 0x00, 0x00, 0x00 };
