#define Max_width 11
#define Max_height 11
static unsigned char Max_bits[] = {
0x00, 0x00, 0xff, 0x07, 0xff, 0x07, 0x01, 0x04,
0x01, 0x04, 0x01, 0x04, 0x01, 0x04, 0x01, 0x04,
0x01, 0x04, 0x01, 0x04, 0xff, 0x07};