#define Max_width 12
#define Max_height 12
static unsigned char Max_bits[] = {
   0x00, 0x00, 0x00, 0x00, 0xf8, 0x0f, 0xf8, 0x0f,
   0x08, 0x08, 0xfe, 0x0b, 0xfe, 0x0b, 0x02, 0x0a,
   0x02, 0x0e, 0x02, 0x02, 0x02, 0x02, 0xfe, 0x03};
