#define close_width 18
#define close_height 18
static unsigned char close_bits[] = {
 0x00, 0x00, 0x00, 0x00, 0x00, 0x00, 0x00, 0x00, 0x00, 0x00, 0x00, 0x00,
 0x0C, 0x0C, 0x00, 0xC6, 0x18, 0x00, 0xE3, 0x31, 0x00, 0xFF, 0x3F, 0x00,
 0xFF, 0x3F, 0x00, 0xFF, 0x3F, 0x00, 0xE3, 0x31, 0x00, 0xC6, 0x18, 0x00,
 0x0C, 0x0C, 0x00, 0x00, 0x00, 0x00, 0x00, 0x00, 0x00, 0x00, 0x00, 0x00,
 0x00, 0x00, 0x00, 0x00, 0x00, 0x00 };
