#define Max_width 12
#define Max_height 12
static unsigned char Max_bits[] = {
   0x00, 0x00, 0x00, 0x00, 0xfe, 0x0f, 0xfe, 0x0f,
   0x02, 0x08, 0x02, 0x08, 0x02, 0x08, 0x02, 0x08,
   0x02, 0x08, 0x02, 0x08, 0x02, 0x08, 0xfe, 0x0f};
